<mxfile host="app.diagrams.net" modified="2021-03-30T00:22:46.988Z" agent="5.0 (Windows NT 10.0; Win64; x64) AppleWebKit/537.36 (KHTML, like Gecko) Chrome/89.0.4389.90 Safari/537.36" etag="ODXaAS-HETB8gfmDAJ8e" version="14.5.3" type="github">
  <diagram id="uD4F_8lbEQFa25Zq561o" name="Page-1">
    <mxGraphModel dx="1002" dy="682" grid="1" gridSize="10" guides="1" tooltips="1" connect="1" arrows="1" fold="1" page="1" pageScale="1" pageWidth="827" pageHeight="1169" math="0" shadow="0">
      <root>
        <mxCell id="0" />
        <mxCell id="1" parent="0" />
        <mxCell id="jaIoYuuLSyJ6LezNB99D-1" value="" style="endArrow=none;html=1;" edge="1" parent="1">
          <mxGeometry width="50" height="50" relative="1" as="geometry">
            <mxPoint x="380" y="380" as="sourcePoint" />
            <mxPoint x="520" y="380" as="targetPoint" />
          </mxGeometry>
        </mxCell>
        <mxCell id="jaIoYuuLSyJ6LezNB99D-2" value="employer" style="text;html=1;align=center;verticalAlign=middle;resizable=0;points=[];autosize=1;" vertex="1" parent="1">
          <mxGeometry x="330" y="390" width="70" height="20" as="geometry" />
        </mxCell>
        <mxCell id="jaIoYuuLSyJ6LezNB99D-3" value="employee" style="text;html=1;align=center;verticalAlign=middle;resizable=0;points=[];autosize=1;" vertex="1" parent="1">
          <mxGeometry x="500" y="390" width="70" height="20" as="geometry" />
        </mxCell>
        <mxCell id="jaIoYuuLSyJ6LezNB99D-4" value="0..1" style="text;html=1;align=center;verticalAlign=middle;resizable=0;points=[];autosize=1;" vertex="1" parent="1">
          <mxGeometry x="380" y="360" width="40" height="20" as="geometry" />
        </mxCell>
        <mxCell id="jaIoYuuLSyJ6LezNB99D-5" value="关联" style="text;html=1;align=center;verticalAlign=middle;resizable=0;points=[];autosize=1;" vertex="1" parent="1">
          <mxGeometry x="430" y="400" width="40" height="20" as="geometry" />
        </mxCell>
      </root>
    </mxGraphModel>
  </diagram>
</mxfile>
